<svg width="512" height="512" xmlns="http://www.w3.org/2000/svg">

 <g>
  <title>background</title>
  <rect fill="none" id="canvas_background" height="402" width="582" y="-1" x="-1"/>
 </g>
 <g>
  <title>Layer 1</title>
  <ellipse stroke="#000000" ry="252.022138" rx="252.527647" id="svg_7" cy="256.011065" cx="256.000004" stroke-width="8" fill="none"/>
  <path id="svg_2" d="m64,250c-3.313,0 -6,2.687 -6,6l0,64c0,3.313 2.687,6 6,6s6,-2.687 6,-6l0,-64c0,-3.313 -2.687,-6 -6,-6z"/>
  <path id="svg_3" d="m112,186c-3.313,0 -6,2.687 -6,6l0,160c0,3.313 2.687,6 6,6s6,-2.687 6,-6l0,-160c0,-3.313 -2.687,-6 -6,-6z"/>
  <path id="svg_4" d="m160,218c-3.313,0 -6,2.687 -6,6l0,128c0,3.313 2.687,6 6,6s6,-2.687 6,-6l0,-128c0,-3.313 -2.687,-6 -6,-6z"/>
  <path id="svg_5" d="m208,154c-3.313,0 -6,2.687 -6,6l0,192c0,3.313 2.687,6 6,6s6,-2.687 6,-6l0,-192c0,-3.313 -2.687,-6 -6,-6z"/>
  <path id="svg_6" d="m384,218c-4.127,0 -8.248,0.366 -12.312,1.092c-7.942,-29.842 -22.937,-54.458 -43.583,-71.447c-20.389,-16.777 -45.322,-25.645 -72.105,-25.645l-6,0l0,236l134,0c38.598,0 70,-31.402 70,-70s-31.402,-70 -70,-70zm0,128l-122,0l0,-211.821c39.243,2.331 84.293,27.775 99.43,93.392l1.4,6.067l6.011,-1.623c4.95,-1.336 10.05,-2.014 15.16,-2.014c31.981,0 58,26.019 58,58s-26.02,57.999 -58.001,57.999z"/>
 </g>
</svg>